<?xml version="1.0" encoding="UTF-8"?>
<svg width="700pt" height="700pt" version="1.1" viewBox="0 0 700 700" xmlns="http://www.w3.org/2000/svg">
 <path d="m522.9 185.68h-232.22c-0.74609-10.449-5.4219-20.227-13.082-27.367-7.6641-7.1445-17.746-11.121-28.219-11.133h-40.602c-10.684 0.046875-20.945 4.1914-28.664 11.586-7.7188 7.3906-12.301 17.465-12.809 28.137-9.0234 2.2578-17.039 7.457-22.777 14.777-5.7383 7.3203-8.8672 16.348-8.8984 25.648v235.03c0.023438 10.992 4.3984 21.527 12.172 29.301 7.7734 7.7734 18.309 12.148 29.305 12.172h345.8c10.996-0.023438 21.531-4.3984 29.305-12.172 7.7734-7.7734 12.148-18.309 12.172-29.301v-235.03c-0.019531-11.008-4.3867-21.566-12.156-29.367-7.7695-7.8047-18.309-12.219-29.32-12.281zm-314.12-25.375h40.602c6.9844-0.003906 13.723 2.5938 18.898 7.2852 5.1758 4.6875 8.418 11.137 9.1016 18.09 0.28906 1.0234 0.40625 2.0859 0.35156 3.1484v240.98c-0.027343 7.5078-3.0234 14.703-8.3359 20.016-5.3086 5.3086-12.504 8.3047-20.016 8.332h-40.602c-7.5156 0-14.727-2.9844-20.043-8.3008-5.3203-5.3164-8.3047-12.527-8.3047-20.047v-240.98c-0.058593-1.0625 0.0625-2.125 0.34766-3.1484 0.65625-6.9648 3.8945-13.43 9.0742-18.125 5.1836-4.6953 11.934-7.2812 18.926-7.25zm342.48 302.05c0 7.5156-2.9883 14.727-8.3047 20.043-5.3164 5.3203-12.527 8.3047-20.047 8.3047h-345.8c-7.5195 0-14.73-2.9844-20.047-8.3047-5.3164-5.3164-8.3047-12.527-8.3047-20.043v-235.03c-0.03125-5.8047 1.7383-11.477 5.0586-16.238 3.3203-4.7656 8.0312-8.3828 13.492-10.359v229.07c-0.003906 11 4.3633 21.551 12.141 29.332 7.7812 7.7773 18.332 12.148 29.332 12.141h40.602c11 0.007812 21.555-4.3633 29.332-12.141 7.7812-7.7812 12.148-18.332 12.145-29.332v-231h232.05c7.5391 0.035157 14.754 3.0586 20.07 8.4062 5.3125 5.3438 8.2891 12.582 8.2812 20.117zm-62.477-230.3h-140.35c-4.0742 0.035157-7.9688 1.6719-10.852 4.5508-2.8789 2.8789-4.5117 6.7773-4.5508 10.848v42.699c0.039062 4.0742 1.6719 7.9688 4.5508 10.852 2.8828 2.8789 6.7773 4.5117 10.852 4.5508h140.35-0.003906c4.0859-0.003906 8-1.6289 10.887-4.5156 2.8867-2.8867 4.5117-6.8008 4.5156-10.887v-42.699c-0.003906-4.082-1.6289-7.9961-4.5156-10.883-2.8867-2.8867-6.8008-4.5117-10.887-4.5156zm2.2734 58.102 0.003906-0.003906c-0.019531 1.25-1.0273 2.2578-2.2773 2.2773h-140.35c-1.25-0.019531-2.2578-1.0273-2.2773-2.2773v-42.699c0.019531-1.2461 1.0273-2.2539 2.2773-2.2734h140.35-0.003906c1.25 0.019531 2.2578 1.0273 2.2773 2.2734zm-117.95 49.348v-8.75c0-2.8984 2.3477-5.25 5.25-5.25h8.75c2.8984 0 5.25 2.3516 5.25 5.25v8.75c0 2.8984-2.3516 5.25-5.25 5.25h-8.75c-1.3945 0-2.7305-0.55469-3.7148-1.5391-0.98438-0.98438-1.5352-2.3203-1.5352-3.7109zm35.613 0v-8.75h-0.003906c0-2.8984 2.3516-5.25 5.25-5.25h8.75c2.9023 0 5.25 2.3516 5.25 5.25v8.75c0 2.8984-2.3477 5.25-5.25 5.25h-8.75c-1.3906 0-2.7266-0.55469-3.7109-1.5391-0.98438-0.98438-1.5391-2.3203-1.5391-3.7109zm36.191 0v-8.75h-0.003906c0-2.8984 2.3516-5.25 5.25-5.25h8.75c2.8984 0 5.25 2.3516 5.25 5.25v8.75c0 2.8984-2.3516 5.25-5.25 5.25h-8.75c-1.3906 0-2.7266-0.55469-3.7109-1.5391-0.98438-0.98438-1.5391-2.3203-1.5391-3.7109zm-52.5 32.883v8.75h-0.003906c0 2.8984-2.3516 5.25-5.25 5.25h-8.75c-2.8984 0-5.25-2.3516-5.25-5.25v-8.75c0-2.8984 2.3516-5.25 5.25-5.25h8.75c1.418-0.019531 2.7812 0.53516 3.7812 1.5352 1.0039 1.0039 1.5586 2.3672 1.5391 3.7852zm35.594 0v8.75h-0.003906c0 2.8984-2.3477 5.25-5.25 5.25h-8.75c-2.8984 0-5.25-2.3516-5.25-5.25v-8.75c0-2.8984 2.3516-5.25 5.25-5.25h8.75c1.418-0.019531 2.7812 0.53516 3.7852 1.5352 1 1.0039 1.5547 2.3672 1.5352 3.7852zm36.207 0v8.75h-0.003906c0 2.8984-2.3477 5.25-5.25 5.25h-8.75c-2.8984 0-5.25-2.3516-5.25-5.25v-8.75c0-2.8984 2.3516-5.25 5.25-5.25h8.75c1.418-0.019531 2.7812 0.53516 3.7852 1.5352 1 1.0039 1.5547 2.3672 1.5352 3.7852zm-71.891 41.668v8.75c0 2.8984-2.3516 5.25-5.25 5.25h-8.75c-2.9023 0-5.25-2.3516-5.25-5.25v-8.75c0-2.8984 2.3477-5.25 5.25-5.25h8.75c1.3906 0 2.7266 0.55078 3.7109 1.5352 0.98438 0.98437 1.5391 2.3203 1.5391 3.7148zm35.613 0v8.75h-0.003907c0 2.8984-2.3477 5.25-5.25 5.25h-8.75c-2.8984 0-5.25-2.3516-5.25-5.25v-8.75c0-2.8984 2.3516-5.25 5.25-5.25h8.75c1.3945 0 2.7305 0.55078 3.7148 1.5352 0.98438 0.98437 1.5352 2.3203 1.5352 3.7148zm36.191 0v8.75h-0.003906c0 2.8984-2.3516 5.25-5.25 5.25h-8.75c-2.8984 0-5.25-2.3516-5.25-5.25v-8.75c0-2.8984 2.3516-5.25 5.25-5.25h8.75c1.3945 0 2.7266 0.55078 3.7109 1.5352 0.98438 0.98437 1.5391 2.3203 1.5391 3.7148zm-219.47-305.04c-1.2344-1.2305-1.9258-2.9023-1.9258-4.6484 0-1.7422 0.69141-3.4141 1.9258-4.6445 27.969-27.887 65.855-43.547 105.35-43.547s77.383 15.66 105.35 43.547c1.8672 1.8828 2.4258 4.6992 1.4102 7.1523-1.0117 2.4492-3.3984 4.0547-6.0508 4.0664-1.7422 0.007812-3.4102-0.6875-4.6367-1.9258-25.5-25.441-60.051-39.73-96.074-39.73s-70.574 14.289-96.074 39.73c-1.2305 1.2344-2.8984 1.9258-4.6367 1.9258-1.7422 0-3.4102-0.69141-4.6406-1.9258zm184.29 13.492c2.5664 2.5625 2.5703 6.7188 0.011719 9.2852-2.5625 2.5664-6.7188 2.5703-9.2852 0.007813-18.145-18.113-42.734-28.289-68.371-28.289-25.641 0-50.23 10.176-68.375 28.289-2.5664 2.5664-6.7266 2.5664-9.293 0-2.5664-2.5664-2.5664-6.7266 0-9.293 20.621-20.551 48.547-32.09 77.656-32.09 29.113 0 57.039 11.539 77.656 32.09z"/>
</svg>
