<?xml version="1.0" encoding="UTF-8"?>
<svg width="700pt" height="700pt" version="1.1" viewBox="0 0 700 700" xmlns="http://www.w3.org/2000/svg">
 <path d="m433.01 415.18c-120.92 0-227.62-88.285-246.89-211.34v-0.007813c-4.3281-27.863 14.828-54.051 42.691-58.387 5.7773-0.89453 11.246-0.85547 16.285 0.089844 7.4805 1.1562 14.582 4.0898 20.863 8.6797 1.1953 0.875 2.0859 2.1055 2.5352 3.5156l16.242 50.676c0.44922 1.4102 0.44531 2.9102-0.015625 4.3125-3.4062 10.426-10.152 19.297-19.285 25.531 10.926 25.219 27.754 47.906 48.945 65.887 6.9531 6.1406 14.391 11.578 22.211 16.254 23.672 14.801 50.402 23.961 77.758 26.723 3.1641-10.602 9.5781-19.723 18.469-26.121 1.1953-0.86719 2.7695-1.8398 4.1016-1.3203l53.211 0.09375c1.4766 0 2.918 0.47266 4.1133 1.3477 6.2891 4.5938 11.246 10.473 14.727 17.473 2.3242 4.2852 4.0195 9.4961 4.9141 15.27 2.0898 13.48-1.2031 26.98-9.2695 38.02-8.0742 11.039-19.941 18.273-33.422 20.363-12.816 1.9844-25.574 2.9414-38.18 2.9414zm-233.06-213.5c20.086 128.26 140.81 216.52 269.11 196.73 9.7734-1.5195 18.395-6.7695 24.254-14.793 5.8633-8.0195 8.2578-17.828 6.7383-27.609-0.64844-4.1914-1.8242-7.875-3.5-10.965-2.2422-4.5039-5.1875-8.2383-8.8398-11.281l-48.441-0.082031c-6.6523 5.4414-11.09 13.199-12.586 22.074-0.60156 3.5469-3.7305 6.0234-7.3711 5.8242-31.699-2.1211-62.828-12.234-90.031-29.246-8.4414-5.0469-16.586-10.992-24.074-17.617-24.355-20.664-43.434-47.266-55.07-76.816-1.3125-3.3438 0.11719-7.1445 3.3086-8.7852 8-4.1211 14.047-10.711 17.227-18.703l-14.785-46.129c-4-2.5547-8.4297-4.2188-13.18-4.957-3.6914-0.69531-7.5469-0.69531-11.758-0.046875-20.234 3.1445-34.141 22.168-31 42.402z"/>
</svg>
