<?xml version="1.0" standalone="no"?>
<!DOCTYPE svg PUBLIC "-//W3C//DTD SVG 20010904//EN"
 "http://www.w3.org/TR/2001/REC-SVG-20010904/DTD/svg10.dtd">
<svg version="1.0" xmlns="http://www.w3.org/2000/svg"
 width="1275.000000pt" height="1651.000000pt" viewBox="0 0 1275.000000 1651.000000"
 preserveAspectRatio="xMidYMid meet">
<metadata>
Created by potrace 1.15, written by Peter Selinger 2001-2017
</metadata>
<g transform="translate(0.000000,1651.000000) scale(0.100000,-0.100000)"
fill="#000000" stroke="none">
<path d="M1360 15300 c0 -5 5 -10 10 -10 6 0 10 5 10 10 0 6 -4 10 -10 10 -5
0 -10 -4 -10 -10z"/>
<path d="M1212 15291 c-26 -16 -9 -53 28 -66 38 -13 45 -32 18 -48 -13 -9 -21
-7 -36 6 -21 19 -38 11 -21 -10 15 -18 74 -17 89 2 18 22 5 44 -35 61 -40 16
-47 44 -12 44 13 0 28 -5 35 -12 9 -9 12 -8 12 4 0 25 -50 37 -78 19z"/>
<path d="M1343 15263 c13 -3 17 -15 17 -48 0 -37 -3 -44 -22 -48 -13 -2 2 -5
32 -5 42 -1 50 1 33 8 -19 8 -23 17 -23 55 0 43 -1 45 -27 44 -17 -1 -21 -3
-10 -6z"/>
<path d="M1456 15254 c-20 -51 5 -101 44 -89 14 5 20 2 20 -10 0 -22 -27 -30
-47 -14 -14 12 -16 12 -11 -1 2 -8 15 -16 27 -18 38 -6 51 15 51 83 l0 62 -39
1 c-27 1 -41 -3 -45 -14z m54 -8 c18 -23 8 -61 -17 -64 -20 -3 -23 1 -23 31 0
47 16 61 40 33z"/>
<path d="M1581 15210 l2 -55 6 43 c4 23 13 48 19 54 18 18 40 -8 45 -55 3 -31
4 -27 3 13 l-1 55 -37 0 -38 1 1 -56z"/>
<path d="M1700 15245 c5 -14 16 -39 25 -55 14 -28 14 -31 -6 -51 -19 -19 -19
-20 -2 -17 17 3 49 56 72 121 16 44 -5 31 -24 -15 l-17 -43 -21 43 c-23 45
-43 58 -27 17z"/>
</g>
</svg>
